<svg xmlns="http://www.w3.org/2000/svg" viewBox="0 0 1200 900" role="img" aria-labelledby="title desc">
  <title id="title">近畿圏内対応エリアの爽やかなイラスト</title>
  <desc id="desc">青空の下、住宅と地図ピン、整理された荷物、笑顔のスタッフを組み合わせた対応エリアのイメージ。</desc>
  <defs>
    <linearGradient id="sky" x1="0" x2="1" y1="0" y2="1">
      <stop offset="0" stop-color="#f4fbff"/>
      <stop offset="0.48" stop-color="#dceef9"/>
      <stop offset="1" stop-color="#bee2f8"/>
    </linearGradient>
    <linearGradient id="blue" x1="0" x2="1" y1="0" y2="1">
      <stop offset="0" stop-color="#51aae0"/>
      <stop offset="1" stop-color="#4a9fbe"/>
    </linearGradient>
    <linearGradient id="pink" x1="0" x2="1" y1="0" y2="1">
      <stop offset="0" stop-color="#ff5e91"/>
      <stop offset="1" stop-color="#e5004f"/>
    </linearGradient>
    <filter id="softShadow" x="-20%" y="-20%" width="140%" height="150%">
      <feDropShadow dx="0" dy="22" stdDeviation="22" flood-color="#267394" flood-opacity="0.18"/>
    </filter>
    <filter id="tinyShadow" x="-20%" y="-20%" width="140%" height="150%">
      <feDropShadow dx="0" dy="8" stdDeviation="8" flood-color="#267394" flood-opacity="0.14"/>
    </filter>
  </defs>

  <rect width="1200" height="900" rx="48" fill="#dceef9"/>
  <path d="M812-8h184L618 900H434z" fill="#fff" opacity=".42"/>
  <path d="M1124 0h76v900H826z" fill="#51aae0" opacity=".16"/>
  <circle cx="1006" cy="172" r="154" fill="#fff" opacity=".34"/>
  <circle cx="130" cy="702" r="190" fill="#fff" opacity=".42"/>

  <g opacity=".72">
    <path d="M128 178c26-35 78-37 107-6 30-46 102-42 126 9 36-12 79 12 79 52 0 35-28 61-64 61H153c-45 0-75-25-75-59 0-32 21-54 50-57z" fill="#fff"/>
    <path d="M874 250c22-29 66-30 91-5 25-38 85-35 105 8 30-10 66 10 66 43 0 29-24 51-54 51H896c-37 0-62-21-62-49 0-27 18-45 40-48z" fill="#fff"/>
  </g>

  <g filter="url(#softShadow)">
    <path d="M146 624c48-178 216-306 413-306 202 0 374 134 418 320 11 47-25 92-73 92H220c-49 0-88-58-74-106z" fill="#fff" opacity=".92"/>
    <path d="M210 642c45-137 184-236 349-236 171 0 314 106 354 250" fill="none" stroke="#bee2f8" stroke-width="28" stroke-linecap="round" stroke-dasharray="4 54"/>
    <path d="M250 641c76-61 171-96 304-96 135 0 231 38 311 101" fill="none" stroke="#51aae0" stroke-width="18" stroke-linecap="round" opacity=".38"/>
  </g>

  <g filter="url(#tinyShadow)">
    <g transform="translate(132 438)">
      <rect x="0" y="124" width="264" height="188" rx="26" fill="#fff"/>
      <path d="M-16 132 132 16l148 116v28H-16z" fill="#51aae0"/>
      <path d="M36 144h190v168H36z" fill="#f4fbff"/>
      <rect x="78" y="178" width="64" height="134" rx="10" fill="#51aae0"/>
      <rect x="154" y="178" width="42" height="42" rx="10" fill="#bee2f8"/>
      <rect x="154" y="238" width="42" height="42" rx="10" fill="#bee2f8"/>
      <circle cx="124" cy="244" r="6" fill="#fff"/>
    </g>

    <g transform="translate(753 420)">
      <rect x="0" y="168" width="270" height="120" rx="28" fill="#fff"/>
      <rect x="36" y="106" width="88" height="94" rx="12" fill="#fabe02"/>
      <path d="M36 132h88" stroke="#fff" stroke-width="10" opacity=".58"/>
      <rect x="116" y="80" width="112" height="120" rx="14" fill="#51aae0"/>
      <path d="M116 112h112" stroke="#fff" stroke-width="12" opacity=".45"/>
      <rect x="82" y="186" width="132" height="46" rx="23" fill="#dceef9"/>
      <path d="M109 210h78" stroke="#4a9fbe" stroke-width="12" stroke-linecap="round"/>
    </g>
  </g>

  <g filter="url(#softShadow)">
    <path d="M594 188c82 0 148 66 148 148 0 118-148 242-148 242S446 454 446 336c0-82 66-148 148-148z" fill="#e5004f"/>
    <circle cx="594" cy="335" r="78" fill="#fff"/>
    <path d="M555 336l28 28 58-64" fill="none" stroke="#00b900" stroke-width="18" stroke-linecap="round" stroke-linejoin="round"/>
  </g>

  <g filter="url(#tinyShadow)">
    <g transform="translate(458 586)">
      <ellipse cx="174" cy="172" rx="188" ry="42" fill="#267394" opacity=".12"/>
      <path d="M113 90c-38 18-62 51-66 91h-34c4-55 39-103 90-127z" fill="#51aae0"/>
      <path d="M246 56c52 22 89 70 94 125h-34c-5-40-31-75-69-92z" fill="#4a9fbe"/>

      <g transform="translate(84 2)">
        <circle cx="70" cy="52" r="38" fill="#ffe1c4"/>
        <path d="M35 53c4-50 74-62 99-18 12 22 5 45 0 56-23-7-44-14-64-14-18 0-35 6-55 14-6-11-9-24-8-38z" fill="#222"/>
        <path d="M20 182c5-59 45-92 102-92s96 33 102 92z" fill="#fff"/>
        <path d="M42 182c7-42 38-64 80-64s73 22 80 64z" fill="#51aae0"/>
        <path d="M89 112l33 30 33-30" fill="none" stroke="#fff" stroke-width="10" stroke-linecap="round" stroke-linejoin="round" opacity=".7"/>
      </g>

      <g transform="translate(232 22)">
        <circle cx="58" cy="48" r="32" fill="#ffe1c4"/>
        <path d="M28 54c0-38 47-57 76-32 20 18 19 49 13 65-17-8-35-12-56-12-19 0-34 4-51 11-5-10-8-21-8-32z" fill="#3b3b3b"/>
        <path d="M0 174c5-51 39-79 89-79 50 0 84 28 89 79z" fill="#fabe02"/>
        <path d="M42 110l47 40 47-40" fill="none" stroke="#fff" stroke-width="10" stroke-linecap="round" stroke-linejoin="round" opacity=".65"/>
      </g>
    </g>
  </g>

</svg>
