<svg xmlns="http://www.w3.org/2000/svg" viewBox="0 0 388 333" width="388" height="333">
  <defs>
    <filter id="zeroShadow" x="-15%" y="-15%" width="140%" height="140%">
      <feOffset dx="6" dy="8" result="off"/>
      <feColorMatrix in="off" type="matrix" values="0 0 0 0 0  0 0 0 0 .14  0 0 0 0 .33  0 0 0 .28 0"/>
      <feMerge>
        <feMergeNode/>
        <feMergeNode in="SourceGraphic"/>
      </feMerge>
    </filter>
  </defs>
  <g filter="url(#zeroShadow)">
    <!-- 爆発バースト背景（オレンジ） -->
    <path fill="#ff7a1a" d="M194 12
      L218 50 L264 26 L268 76 L318 64 L304 110 L356 116 L320 150
      L376 174 L322 198 L356 240 L304 244 L318 290 L268 280
      L264 326 L218 304 L194 340 L170 304 L124 326 L120 280
      L70 290 L84 244 L32 240 L66 198 L12 174 L66 150 L32 116
      L84 110 L70 64 L120 76 L124 26 L170 50 Z"/>
    <!-- 0円本体（白抜き） -->
    <g font-family="'Hiragino Kaku Gothic StdN','Hiragino Sans','Noto Sans JP','Yu Gothic',sans-serif" font-weight="900" text-anchor="middle">
      <text x="138" y="232" fill="#fff200" stroke="#ff4d00" stroke-width="10" stroke-linejoin="round" paint-order="stroke fill" font-size="230" transform="rotate(-8 138 220)">0</text>
      <text x="298" y="218" fill="#fff200" stroke="#ff4d00" stroke-width="8" stroke-linejoin="round" paint-order="stroke fill" font-size="120" transform="rotate(-8 298 208)">円</text>
    </g>
  </g>
</svg>
