<svg xmlns="http://www.w3.org/2000/svg" viewBox="0 0 132 80" width="132" height="80">
  <rect x="2" y="2" width="128" height="76" rx="20" fill="#0a3aa6"/>
  <rect x="2" y="2" width="128" height="76" rx="20" fill="none" stroke="#ffffff" stroke-width="3" opacity="0.85"/>
  <!-- free signal arcs -->
  <g fill="none" stroke="#ffd60a" stroke-width="4.5" stroke-linecap="round">
    <path d="M40 26 A22 22 0 0 0 40 54"/>
    <path d="M30 20 A32 32 0 0 0 30 60"/>
  </g>
  <!-- phone handset (white) -->
  <g transform="translate(54,20) scale(1.65)">
    <path fill="#ffffff" d="M6.6 10.8c1.4 2.8 3.8 5.1 6.6 6.6l2.2-2.2c.3-.3.7-.4 1-.2 1.1.4 2.4.6 3.6.6.6 0 1 .4 1 1V20c0 .6-.4 1-1 1C9.6 21 3 14.4 3 6c0-.6.4-1 1-1h3.5c.6 0 1 .4 1 1 0 1.3.2 2.5.6 3.6.1.4 0 .8-.2 1l-2.3 2.2z"/>
  </g>
</svg>
